<mxfile host="app.diagrams.net" agent="Mozilla/5.0 (Windows NT 10.0; Win64; x64) AppleWebKit/537.36 (KHTML, like Gecko) Chrome/133.0.0.0 Safari/537.36" version="26.0.16">
  <diagram id="C5RBs43oDa-KdzZeNtuy" name="Page-1">
    <mxGraphModel dx="1843" dy="1965" grid="1" gridSize="10" guides="1" tooltips="1" connect="1" arrows="1" fold="1" page="1" pageScale="1" pageWidth="827" pageHeight="1169" math="0" shadow="0">
      <root>
        <mxCell id="WIyWlLk6GJQsqaUBKTNV-0" />
        <mxCell id="WIyWlLk6GJQsqaUBKTNV-1" parent="WIyWlLk6GJQsqaUBKTNV-0" />
        <mxCell id="TQMWpj2GuU2XblvTJpzS-42" value="" style="edgeStyle=orthogonalEdgeStyle;rounded=0;orthogonalLoop=1;jettySize=auto;html=1;" edge="1" parent="WIyWlLk6GJQsqaUBKTNV-1" source="TQMWpj2GuU2XblvTJpzS-37" target="TQMWpj2GuU2XblvTJpzS-39">
          <mxGeometry relative="1" as="geometry" />
        </mxCell>
        <mxCell id="TQMWpj2GuU2XblvTJpzS-155" value="false" style="edgeLabel;html=1;align=center;verticalAlign=middle;resizable=0;points=[];" vertex="1" connectable="0" parent="TQMWpj2GuU2XblvTJpzS-42">
          <mxGeometry x="-0.0935" y="-2" relative="1" as="geometry">
            <mxPoint as="offset" />
          </mxGeometry>
        </mxCell>
        <mxCell id="TQMWpj2GuU2XblvTJpzS-51" value="" style="edgeStyle=orthogonalEdgeStyle;rounded=0;orthogonalLoop=1;jettySize=auto;html=1;" edge="1" parent="WIyWlLk6GJQsqaUBKTNV-1" source="TQMWpj2GuU2XblvTJpzS-37" target="TQMWpj2GuU2XblvTJpzS-49">
          <mxGeometry relative="1" as="geometry" />
        </mxCell>
        <mxCell id="TQMWpj2GuU2XblvTJpzS-150" value="true" style="edgeLabel;html=1;align=center;verticalAlign=middle;resizable=0;points=[];" vertex="1" connectable="0" parent="TQMWpj2GuU2XblvTJpzS-51">
          <mxGeometry x="0.0714" y="-1" relative="1" as="geometry">
            <mxPoint y="1" as="offset" />
          </mxGeometry>
        </mxCell>
        <mxCell id="TQMWpj2GuU2XblvTJpzS-37" value="Apakah input&amp;nbsp;&lt;div&gt;pengguna adalah 1?&lt;/div&gt;" style="rhombus;whiteSpace=wrap;html=1;" vertex="1" parent="WIyWlLk6GJQsqaUBKTNV-1">
          <mxGeometry x="344" y="840" width="140" height="140" as="geometry" />
        </mxCell>
        <mxCell id="TQMWpj2GuU2XblvTJpzS-38" value="" style="edgeStyle=orthogonalEdgeStyle;rounded=0;orthogonalLoop=1;jettySize=auto;html=1;" edge="1" parent="WIyWlLk6GJQsqaUBKTNV-1" target="TQMWpj2GuU2XblvTJpzS-37">
          <mxGeometry relative="1" as="geometry">
            <mxPoint x="960" y="760" as="sourcePoint" />
          </mxGeometry>
        </mxCell>
        <mxCell id="TQMWpj2GuU2XblvTJpzS-43" value="" style="edgeStyle=orthogonalEdgeStyle;rounded=0;orthogonalLoop=1;jettySize=auto;html=1;" edge="1" parent="WIyWlLk6GJQsqaUBKTNV-1" source="TQMWpj2GuU2XblvTJpzS-39" target="TQMWpj2GuU2XblvTJpzS-40">
          <mxGeometry relative="1" as="geometry" />
        </mxCell>
        <mxCell id="TQMWpj2GuU2XblvTJpzS-156" value="false" style="edgeLabel;html=1;align=center;verticalAlign=middle;resizable=0;points=[];" vertex="1" connectable="0" parent="TQMWpj2GuU2XblvTJpzS-43">
          <mxGeometry x="-0.0111" y="-2" relative="1" as="geometry">
            <mxPoint as="offset" />
          </mxGeometry>
        </mxCell>
        <mxCell id="TQMWpj2GuU2XblvTJpzS-68" value="" style="edgeStyle=orthogonalEdgeStyle;rounded=0;orthogonalLoop=1;jettySize=auto;html=1;" edge="1" parent="WIyWlLk6GJQsqaUBKTNV-1" source="TQMWpj2GuU2XblvTJpzS-39" target="TQMWpj2GuU2XblvTJpzS-62">
          <mxGeometry relative="1" as="geometry" />
        </mxCell>
        <mxCell id="TQMWpj2GuU2XblvTJpzS-151" value="true" style="edgeLabel;html=1;align=center;verticalAlign=middle;resizable=0;points=[];" vertex="1" connectable="0" parent="TQMWpj2GuU2XblvTJpzS-68">
          <mxGeometry x="0.1667" y="-2" relative="1" as="geometry">
            <mxPoint y="-1" as="offset" />
          </mxGeometry>
        </mxCell>
        <mxCell id="TQMWpj2GuU2XblvTJpzS-39" value="Apakah input&amp;nbsp;&lt;div&gt;pengguna adalah 2?&lt;/div&gt;" style="rhombus;whiteSpace=wrap;html=1;" vertex="1" parent="WIyWlLk6GJQsqaUBKTNV-1">
          <mxGeometry x="623" y="840" width="140" height="140" as="geometry" />
        </mxCell>
        <mxCell id="TQMWpj2GuU2XblvTJpzS-44" value="" style="edgeStyle=orthogonalEdgeStyle;rounded=0;orthogonalLoop=1;jettySize=auto;html=1;" edge="1" parent="WIyWlLk6GJQsqaUBKTNV-1" source="TQMWpj2GuU2XblvTJpzS-40" target="TQMWpj2GuU2XblvTJpzS-41">
          <mxGeometry relative="1" as="geometry" />
        </mxCell>
        <mxCell id="TQMWpj2GuU2XblvTJpzS-157" value="false" style="edgeLabel;html=1;align=center;verticalAlign=middle;resizable=0;points=[];" vertex="1" connectable="0" parent="TQMWpj2GuU2XblvTJpzS-44">
          <mxGeometry x="-0.0388" y="-1" relative="1" as="geometry">
            <mxPoint as="offset" />
          </mxGeometry>
        </mxCell>
        <mxCell id="TQMWpj2GuU2XblvTJpzS-89" value="" style="edgeStyle=orthogonalEdgeStyle;rounded=0;orthogonalLoop=1;jettySize=auto;html=1;" edge="1" parent="WIyWlLk6GJQsqaUBKTNV-1" source="TQMWpj2GuU2XblvTJpzS-40" target="TQMWpj2GuU2XblvTJpzS-73">
          <mxGeometry relative="1" as="geometry" />
        </mxCell>
        <mxCell id="TQMWpj2GuU2XblvTJpzS-152" value="true" style="edgeLabel;html=1;align=center;verticalAlign=middle;resizable=0;points=[];" vertex="1" connectable="0" parent="TQMWpj2GuU2XblvTJpzS-89">
          <mxGeometry x="0.1667" y="2" relative="1" as="geometry">
            <mxPoint y="-1" as="offset" />
          </mxGeometry>
        </mxCell>
        <mxCell id="TQMWpj2GuU2XblvTJpzS-40" value="Apakah input&amp;nbsp;&lt;div&gt;pengguna adalah 3?&lt;/div&gt;" style="rhombus;whiteSpace=wrap;html=1;" vertex="1" parent="WIyWlLk6GJQsqaUBKTNV-1">
          <mxGeometry x="904" y="840" width="140" height="140" as="geometry" />
        </mxCell>
        <mxCell id="TQMWpj2GuU2XblvTJpzS-46" value="" style="edgeStyle=orthogonalEdgeStyle;rounded=0;orthogonalLoop=1;jettySize=auto;html=1;" edge="1" parent="WIyWlLk6GJQsqaUBKTNV-1" source="TQMWpj2GuU2XblvTJpzS-41" target="TQMWpj2GuU2XblvTJpzS-45">
          <mxGeometry relative="1" as="geometry" />
        </mxCell>
        <mxCell id="TQMWpj2GuU2XblvTJpzS-158" value="faslse" style="edgeLabel;html=1;align=center;verticalAlign=middle;resizable=0;points=[];" vertex="1" connectable="0" parent="TQMWpj2GuU2XblvTJpzS-46">
          <mxGeometry x="-0.0664" y="-1" relative="1" as="geometry">
            <mxPoint as="offset" />
          </mxGeometry>
        </mxCell>
        <mxCell id="TQMWpj2GuU2XblvTJpzS-90" value="" style="edgeStyle=orthogonalEdgeStyle;rounded=0;orthogonalLoop=1;jettySize=auto;html=1;" edge="1" parent="WIyWlLk6GJQsqaUBKTNV-1" source="TQMWpj2GuU2XblvTJpzS-41" target="TQMWpj2GuU2XblvTJpzS-83">
          <mxGeometry relative="1" as="geometry" />
        </mxCell>
        <mxCell id="TQMWpj2GuU2XblvTJpzS-153" value="true" style="edgeLabel;html=1;align=center;verticalAlign=middle;resizable=0;points=[];" vertex="1" connectable="0" parent="TQMWpj2GuU2XblvTJpzS-90">
          <mxGeometry x="0.2143" relative="1" as="geometry">
            <mxPoint y="-1" as="offset" />
          </mxGeometry>
        </mxCell>
        <mxCell id="TQMWpj2GuU2XblvTJpzS-41" value="Apakah input&amp;nbsp;&lt;div&gt;pengguna adalah 4?&lt;/div&gt;" style="rhombus;whiteSpace=wrap;html=1;" vertex="1" parent="WIyWlLk6GJQsqaUBKTNV-1">
          <mxGeometry x="1184" y="840" width="140" height="140" as="geometry" />
        </mxCell>
        <mxCell id="TQMWpj2GuU2XblvTJpzS-94" value="" style="edgeStyle=orthogonalEdgeStyle;rounded=0;orthogonalLoop=1;jettySize=auto;html=1;" edge="1" parent="WIyWlLk6GJQsqaUBKTNV-1" source="TQMWpj2GuU2XblvTJpzS-45" target="TQMWpj2GuU2XblvTJpzS-92">
          <mxGeometry relative="1" as="geometry" />
        </mxCell>
        <mxCell id="TQMWpj2GuU2XblvTJpzS-154" value="true" style="edgeLabel;html=1;align=center;verticalAlign=middle;resizable=0;points=[];" vertex="1" connectable="0" parent="TQMWpj2GuU2XblvTJpzS-94">
          <mxGeometry x="0.2143" relative="1" as="geometry">
            <mxPoint y="-1" as="offset" />
          </mxGeometry>
        </mxCell>
        <mxCell id="TQMWpj2GuU2XblvTJpzS-100" value="" style="edgeStyle=orthogonalEdgeStyle;rounded=0;orthogonalLoop=1;jettySize=auto;html=1;" edge="1" parent="WIyWlLk6GJQsqaUBKTNV-1" source="TQMWpj2GuU2XblvTJpzS-45" target="TQMWpj2GuU2XblvTJpzS-98">
          <mxGeometry relative="1" as="geometry" />
        </mxCell>
        <mxCell id="TQMWpj2GuU2XblvTJpzS-159" value="false" style="edgeLabel;html=1;align=center;verticalAlign=middle;resizable=0;points=[];" vertex="1" connectable="0" parent="TQMWpj2GuU2XblvTJpzS-100">
          <mxGeometry x="-0.1743" y="-2" relative="1" as="geometry">
            <mxPoint as="offset" />
          </mxGeometry>
        </mxCell>
        <mxCell id="TQMWpj2GuU2XblvTJpzS-45" value="Apakah input&amp;nbsp;&lt;div&gt;pengguna adalah 5?&lt;/div&gt;" style="rhombus;whiteSpace=wrap;html=1;" vertex="1" parent="WIyWlLk6GJQsqaUBKTNV-1">
          <mxGeometry x="1410" y="840" width="140" height="140" as="geometry" />
        </mxCell>
        <mxCell id="TQMWpj2GuU2XblvTJpzS-57" value="" style="group" vertex="1" connectable="0" parent="WIyWlLk6GJQsqaUBKTNV-1">
          <mxGeometry x="280" y="1040" width="268" height="320" as="geometry" />
        </mxCell>
        <mxCell id="TQMWpj2GuU2XblvTJpzS-56" value="" style="edgeStyle=orthogonalEdgeStyle;rounded=0;orthogonalLoop=1;jettySize=auto;html=1;" edge="1" parent="TQMWpj2GuU2XblvTJpzS-57" source="TQMWpj2GuU2XblvTJpzS-47" target="TQMWpj2GuU2XblvTJpzS-54">
          <mxGeometry relative="1" as="geometry" />
        </mxCell>
        <mxCell id="TQMWpj2GuU2XblvTJpzS-47" value="Mengkonversi Nilai Celcius ke&amp;nbsp;Fahrenheit, Reamur, dan Kelvin" style="rounded=0;whiteSpace=wrap;html=1;" vertex="1" parent="TQMWpj2GuU2XblvTJpzS-57">
          <mxGeometry x="67.5" y="120" width="133" height="80" as="geometry" />
        </mxCell>
        <mxCell id="TQMWpj2GuU2XblvTJpzS-48" value="" style="group" vertex="1" connectable="0" parent="TQMWpj2GuU2XblvTJpzS-57">
          <mxGeometry width="224" height="80" as="geometry" />
        </mxCell>
        <mxCell id="TQMWpj2GuU2XblvTJpzS-49" value="Pengguna menginput&amp;nbsp;&lt;div&gt;berapa nilai Celcius&lt;/div&gt;" style="shape=parallelogram;perimeter=parallelogramPerimeter;whiteSpace=wrap;html=1;fixedSize=1;" vertex="1" parent="TQMWpj2GuU2XblvTJpzS-48">
          <mxGeometry x="44" width="180" height="80" as="geometry" />
        </mxCell>
        <mxCell id="TQMWpj2GuU2XblvTJpzS-50" value="" style="endArrow=classic;html=1;rounded=0;entryX=0.113;entryY=0.002;entryDx=0;entryDy=0;entryPerimeter=0;" edge="1" parent="TQMWpj2GuU2XblvTJpzS-48" target="TQMWpj2GuU2XblvTJpzS-49">
          <mxGeometry width="50" height="50" relative="1" as="geometry">
            <mxPoint as="sourcePoint" />
            <mxPoint x="160" y="-10" as="targetPoint" />
          </mxGeometry>
        </mxCell>
        <mxCell id="TQMWpj2GuU2XblvTJpzS-52" value="" style="edgeStyle=orthogonalEdgeStyle;rounded=0;orthogonalLoop=1;jettySize=auto;html=1;" edge="1" parent="TQMWpj2GuU2XblvTJpzS-57" source="TQMWpj2GuU2XblvTJpzS-49" target="TQMWpj2GuU2XblvTJpzS-47">
          <mxGeometry relative="1" as="geometry" />
        </mxCell>
        <mxCell id="TQMWpj2GuU2XblvTJpzS-53" value="" style="group" vertex="1" connectable="0" parent="TQMWpj2GuU2XblvTJpzS-57">
          <mxGeometry x="44" y="240" width="224" height="80" as="geometry" />
        </mxCell>
        <mxCell id="TQMWpj2GuU2XblvTJpzS-54" value="Print Hasil Konversi" style="shape=parallelogram;perimeter=parallelogramPerimeter;whiteSpace=wrap;html=1;fixedSize=1;" vertex="1" parent="TQMWpj2GuU2XblvTJpzS-53">
          <mxGeometry width="180" height="80" as="geometry" />
        </mxCell>
        <mxCell id="TQMWpj2GuU2XblvTJpzS-55" value="" style="endArrow=classic;html=1;rounded=0;exitX=0.9;exitY=1;exitDx=0;exitDy=0;exitPerimeter=0;" edge="1" parent="TQMWpj2GuU2XblvTJpzS-53" source="TQMWpj2GuU2XblvTJpzS-54">
          <mxGeometry width="50" height="50" relative="1" as="geometry">
            <mxPoint x="66" y="160" as="sourcePoint" />
            <mxPoint x="206" y="80" as="targetPoint" />
          </mxGeometry>
        </mxCell>
        <mxCell id="TQMWpj2GuU2XblvTJpzS-58" value="" style="group" vertex="1" connectable="0" parent="WIyWlLk6GJQsqaUBKTNV-1">
          <mxGeometry x="559" y="1040" width="268" height="320" as="geometry" />
        </mxCell>
        <mxCell id="TQMWpj2GuU2XblvTJpzS-59" value="" style="edgeStyle=orthogonalEdgeStyle;rounded=0;orthogonalLoop=1;jettySize=auto;html=1;" edge="1" parent="TQMWpj2GuU2XblvTJpzS-58" source="TQMWpj2GuU2XblvTJpzS-60" target="TQMWpj2GuU2XblvTJpzS-66">
          <mxGeometry relative="1" as="geometry" />
        </mxCell>
        <mxCell id="TQMWpj2GuU2XblvTJpzS-60" value="Mengkonversi Nilai Fahrenheit ke Celcius, Reamur, dan Kelvin" style="rounded=0;whiteSpace=wrap;html=1;" vertex="1" parent="TQMWpj2GuU2XblvTJpzS-58">
          <mxGeometry x="67.5" y="120" width="133" height="80" as="geometry" />
        </mxCell>
        <mxCell id="TQMWpj2GuU2XblvTJpzS-61" value="" style="group" vertex="1" connectable="0" parent="TQMWpj2GuU2XblvTJpzS-58">
          <mxGeometry width="224" height="80" as="geometry" />
        </mxCell>
        <mxCell id="TQMWpj2GuU2XblvTJpzS-62" value="Pengguna menginput&amp;nbsp;&lt;div&gt;berapa nilai Fahrenheit&lt;/div&gt;" style="shape=parallelogram;perimeter=parallelogramPerimeter;whiteSpace=wrap;html=1;fixedSize=1;" vertex="1" parent="TQMWpj2GuU2XblvTJpzS-61">
          <mxGeometry x="44" width="180" height="80" as="geometry" />
        </mxCell>
        <mxCell id="TQMWpj2GuU2XblvTJpzS-63" value="" style="endArrow=classic;html=1;rounded=0;entryX=0.113;entryY=0.002;entryDx=0;entryDy=0;entryPerimeter=0;" edge="1" parent="TQMWpj2GuU2XblvTJpzS-61" target="TQMWpj2GuU2XblvTJpzS-62">
          <mxGeometry width="50" height="50" relative="1" as="geometry">
            <mxPoint as="sourcePoint" />
            <mxPoint x="160" y="-10" as="targetPoint" />
          </mxGeometry>
        </mxCell>
        <mxCell id="TQMWpj2GuU2XblvTJpzS-64" value="" style="edgeStyle=orthogonalEdgeStyle;rounded=0;orthogonalLoop=1;jettySize=auto;html=1;" edge="1" parent="TQMWpj2GuU2XblvTJpzS-58" source="TQMWpj2GuU2XblvTJpzS-62" target="TQMWpj2GuU2XblvTJpzS-60">
          <mxGeometry relative="1" as="geometry" />
        </mxCell>
        <mxCell id="TQMWpj2GuU2XblvTJpzS-65" value="" style="group" vertex="1" connectable="0" parent="TQMWpj2GuU2XblvTJpzS-58">
          <mxGeometry x="44" y="240" width="224" height="80" as="geometry" />
        </mxCell>
        <mxCell id="TQMWpj2GuU2XblvTJpzS-66" value="Print Hasil Konversi" style="shape=parallelogram;perimeter=parallelogramPerimeter;whiteSpace=wrap;html=1;fixedSize=1;" vertex="1" parent="TQMWpj2GuU2XblvTJpzS-65">
          <mxGeometry width="180" height="80" as="geometry" />
        </mxCell>
        <mxCell id="TQMWpj2GuU2XblvTJpzS-67" value="" style="endArrow=classic;html=1;rounded=0;exitX=0.9;exitY=1;exitDx=0;exitDy=0;exitPerimeter=0;" edge="1" parent="TQMWpj2GuU2XblvTJpzS-65" source="TQMWpj2GuU2XblvTJpzS-66">
          <mxGeometry width="50" height="50" relative="1" as="geometry">
            <mxPoint x="66" y="160" as="sourcePoint" />
            <mxPoint x="206" y="80" as="targetPoint" />
          </mxGeometry>
        </mxCell>
        <mxCell id="TQMWpj2GuU2XblvTJpzS-69" value="" style="group" vertex="1" connectable="0" parent="WIyWlLk6GJQsqaUBKTNV-1">
          <mxGeometry x="840" y="1040" width="268" height="320" as="geometry" />
        </mxCell>
        <mxCell id="TQMWpj2GuU2XblvTJpzS-70" value="" style="edgeStyle=orthogonalEdgeStyle;rounded=0;orthogonalLoop=1;jettySize=auto;html=1;" edge="1" parent="TQMWpj2GuU2XblvTJpzS-69" source="TQMWpj2GuU2XblvTJpzS-71" target="TQMWpj2GuU2XblvTJpzS-77">
          <mxGeometry relative="1" as="geometry" />
        </mxCell>
        <mxCell id="TQMWpj2GuU2XblvTJpzS-71" value="Mengkonversi Nilai Reamur ke Celcius, Fahrenheit, dan Kelvin" style="rounded=0;whiteSpace=wrap;html=1;" vertex="1" parent="TQMWpj2GuU2XblvTJpzS-69">
          <mxGeometry x="67.5" y="120" width="133" height="80" as="geometry" />
        </mxCell>
        <mxCell id="TQMWpj2GuU2XblvTJpzS-72" value="" style="group" vertex="1" connectable="0" parent="TQMWpj2GuU2XblvTJpzS-69">
          <mxGeometry width="224" height="80" as="geometry" />
        </mxCell>
        <mxCell id="TQMWpj2GuU2XblvTJpzS-73" value="Pengguna menginput&amp;nbsp;&lt;div&gt;berapa nilai Reamur&lt;/div&gt;" style="shape=parallelogram;perimeter=parallelogramPerimeter;whiteSpace=wrap;html=1;fixedSize=1;" vertex="1" parent="TQMWpj2GuU2XblvTJpzS-72">
          <mxGeometry x="44" width="180" height="80" as="geometry" />
        </mxCell>
        <mxCell id="TQMWpj2GuU2XblvTJpzS-74" value="" style="endArrow=classic;html=1;rounded=0;entryX=0.113;entryY=0.002;entryDx=0;entryDy=0;entryPerimeter=0;" edge="1" parent="TQMWpj2GuU2XblvTJpzS-72" target="TQMWpj2GuU2XblvTJpzS-73">
          <mxGeometry width="50" height="50" relative="1" as="geometry">
            <mxPoint as="sourcePoint" />
            <mxPoint x="160" y="-10" as="targetPoint" />
          </mxGeometry>
        </mxCell>
        <mxCell id="TQMWpj2GuU2XblvTJpzS-75" value="" style="edgeStyle=orthogonalEdgeStyle;rounded=0;orthogonalLoop=1;jettySize=auto;html=1;" edge="1" parent="TQMWpj2GuU2XblvTJpzS-69" source="TQMWpj2GuU2XblvTJpzS-73" target="TQMWpj2GuU2XblvTJpzS-71">
          <mxGeometry relative="1" as="geometry" />
        </mxCell>
        <mxCell id="TQMWpj2GuU2XblvTJpzS-76" value="" style="group" vertex="1" connectable="0" parent="TQMWpj2GuU2XblvTJpzS-69">
          <mxGeometry x="44" y="240" width="224" height="80" as="geometry" />
        </mxCell>
        <mxCell id="TQMWpj2GuU2XblvTJpzS-77" value="Print Hasil Konversi" style="shape=parallelogram;perimeter=parallelogramPerimeter;whiteSpace=wrap;html=1;fixedSize=1;" vertex="1" parent="TQMWpj2GuU2XblvTJpzS-76">
          <mxGeometry width="180" height="80" as="geometry" />
        </mxCell>
        <mxCell id="TQMWpj2GuU2XblvTJpzS-78" value="" style="endArrow=classic;html=1;rounded=0;exitX=0.9;exitY=1;exitDx=0;exitDy=0;exitPerimeter=0;" edge="1" parent="TQMWpj2GuU2XblvTJpzS-76" source="TQMWpj2GuU2XblvTJpzS-77">
          <mxGeometry width="50" height="50" relative="1" as="geometry">
            <mxPoint x="66" y="160" as="sourcePoint" />
            <mxPoint x="206" y="80" as="targetPoint" />
          </mxGeometry>
        </mxCell>
        <mxCell id="TQMWpj2GuU2XblvTJpzS-91" value="" style="group" vertex="1" connectable="0" parent="WIyWlLk6GJQsqaUBKTNV-1">
          <mxGeometry x="1400" y="1040" width="224" height="80" as="geometry" />
        </mxCell>
        <mxCell id="TQMWpj2GuU2XblvTJpzS-92" value="Print &quot;Terima kasih telah berkunjung&quot;" style="shape=parallelogram;perimeter=parallelogramPerimeter;whiteSpace=wrap;html=1;fixedSize=1;" vertex="1" parent="TQMWpj2GuU2XblvTJpzS-91">
          <mxGeometry x="-10" width="180" height="80" as="geometry" />
        </mxCell>
        <mxCell id="TQMWpj2GuU2XblvTJpzS-93" value="" style="endArrow=classic;html=1;rounded=0;exitX=0.9;exitY=1;exitDx=0;exitDy=0;exitPerimeter=0;" edge="1" parent="TQMWpj2GuU2XblvTJpzS-91" source="TQMWpj2GuU2XblvTJpzS-92">
          <mxGeometry width="50" height="50" relative="1" as="geometry">
            <mxPoint x="66" y="160" as="sourcePoint" />
            <mxPoint x="206" y="80" as="targetPoint" />
          </mxGeometry>
        </mxCell>
        <mxCell id="TQMWpj2GuU2XblvTJpzS-96" value="" style="endArrow=none;html=1;rounded=0;" edge="1" parent="WIyWlLk6GJQsqaUBKTNV-1">
          <mxGeometry width="50" height="50" relative="1" as="geometry">
            <mxPoint x="960" y="760" as="sourcePoint" />
            <mxPoint x="960" y="720" as="targetPoint" />
          </mxGeometry>
        </mxCell>
        <mxCell id="TQMWpj2GuU2XblvTJpzS-97" value="" style="group" vertex="1" connectable="0" parent="WIyWlLk6GJQsqaUBKTNV-1">
          <mxGeometry x="1650" y="870" width="224" height="80" as="geometry" />
        </mxCell>
        <mxCell id="TQMWpj2GuU2XblvTJpzS-98" value="Print &quot;Pilihan tidak&amp;nbsp;&lt;div&gt;ada di menu&quot;&lt;/div&gt;" style="shape=parallelogram;perimeter=parallelogramPerimeter;whiteSpace=wrap;html=1;fixedSize=1;" vertex="1" parent="TQMWpj2GuU2XblvTJpzS-97">
          <mxGeometry x="-10" width="180" height="80" as="geometry" />
        </mxCell>
        <mxCell id="TQMWpj2GuU2XblvTJpzS-99" value="" style="endArrow=classic;html=1;rounded=0;exitX=0.9;exitY=1;exitDx=0;exitDy=0;exitPerimeter=0;" edge="1" parent="TQMWpj2GuU2XblvTJpzS-97" source="TQMWpj2GuU2XblvTJpzS-98">
          <mxGeometry width="50" height="50" relative="1" as="geometry">
            <mxPoint x="66" y="160" as="sourcePoint" />
            <mxPoint x="206" y="80" as="targetPoint" />
          </mxGeometry>
        </mxCell>
        <mxCell id="TQMWpj2GuU2XblvTJpzS-101" value="" style="endArrow=none;html=1;rounded=0;" edge="1" parent="WIyWlLk6GJQsqaUBKTNV-1">
          <mxGeometry width="50" height="50" relative="1" as="geometry">
            <mxPoint x="240" y="1440" as="sourcePoint" />
            <mxPoint x="1260" y="1440" as="targetPoint" />
          </mxGeometry>
        </mxCell>
        <mxCell id="TQMWpj2GuU2XblvTJpzS-102" value="" style="endArrow=none;html=1;rounded=0;exitX=0.5;exitY=1;exitDx=0;exitDy=0;" edge="1" parent="WIyWlLk6GJQsqaUBKTNV-1" source="TQMWpj2GuU2XblvTJpzS-87">
          <mxGeometry width="50" height="50" relative="1" as="geometry">
            <mxPoint x="1050" y="1290" as="sourcePoint" />
            <mxPoint x="1254" y="1440" as="targetPoint" />
          </mxGeometry>
        </mxCell>
        <mxCell id="TQMWpj2GuU2XblvTJpzS-103" value="" style="endArrow=none;html=1;rounded=0;exitX=0.5;exitY=1;exitDx=0;exitDy=0;" edge="1" parent="WIyWlLk6GJQsqaUBKTNV-1" source="TQMWpj2GuU2XblvTJpzS-77">
          <mxGeometry width="50" height="50" relative="1" as="geometry">
            <mxPoint x="1050" y="1550" as="sourcePoint" />
            <mxPoint x="974" y="1440" as="targetPoint" />
          </mxGeometry>
        </mxCell>
        <mxCell id="TQMWpj2GuU2XblvTJpzS-104" value="" style="endArrow=none;html=1;rounded=0;exitX=0.5;exitY=1;exitDx=0;exitDy=0;" edge="1" parent="WIyWlLk6GJQsqaUBKTNV-1" source="TQMWpj2GuU2XblvTJpzS-66">
          <mxGeometry width="50" height="50" relative="1" as="geometry">
            <mxPoint x="560" y="1550" as="sourcePoint" />
            <mxPoint x="693" y="1440" as="targetPoint" />
          </mxGeometry>
        </mxCell>
        <mxCell id="TQMWpj2GuU2XblvTJpzS-105" value="" style="endArrow=none;html=1;rounded=0;exitX=0.5;exitY=1;exitDx=0;exitDy=0;" edge="1" parent="WIyWlLk6GJQsqaUBKTNV-1" source="TQMWpj2GuU2XblvTJpzS-54">
          <mxGeometry width="50" height="50" relative="1" as="geometry">
            <mxPoint x="560" y="1550" as="sourcePoint" />
            <mxPoint x="414" y="1440" as="targetPoint" />
          </mxGeometry>
        </mxCell>
        <mxCell id="TQMWpj2GuU2XblvTJpzS-106" value="" style="endArrow=none;html=1;rounded=0;" edge="1" parent="WIyWlLk6GJQsqaUBKTNV-1">
          <mxGeometry width="50" height="50" relative="1" as="geometry">
            <mxPoint x="240" y="1440" as="sourcePoint" />
            <mxPoint x="240" y="560" as="targetPoint" />
          </mxGeometry>
        </mxCell>
        <mxCell id="TQMWpj2GuU2XblvTJpzS-107" value="" style="endArrow=classic;html=1;rounded=0;" edge="1" parent="WIyWlLk6GJQsqaUBKTNV-1">
          <mxGeometry width="50" height="50" relative="1" as="geometry">
            <mxPoint x="240" y="560" as="sourcePoint" />
            <mxPoint x="880" y="560" as="targetPoint" />
          </mxGeometry>
        </mxCell>
        <mxCell id="TQMWpj2GuU2XblvTJpzS-108" value="loop" style="edgeLabel;html=1;align=center;verticalAlign=middle;resizable=0;points=[];" vertex="1" connectable="0" parent="TQMWpj2GuU2XblvTJpzS-107">
          <mxGeometry x="0.7544" y="-1" relative="1" as="geometry">
            <mxPoint as="offset" />
          </mxGeometry>
        </mxCell>
        <mxCell id="TQMWpj2GuU2XblvTJpzS-109" value="" style="endArrow=none;html=1;rounded=0;exitX=0.5;exitY=0;exitDx=0;exitDy=0;" edge="1" parent="WIyWlLk6GJQsqaUBKTNV-1" source="TQMWpj2GuU2XblvTJpzS-98">
          <mxGeometry width="50" height="50" relative="1" as="geometry">
            <mxPoint x="1350" y="690" as="sourcePoint" />
            <mxPoint x="1730" y="560" as="targetPoint" />
          </mxGeometry>
        </mxCell>
        <mxCell id="TQMWpj2GuU2XblvTJpzS-110" value="" style="endArrow=classic;html=1;rounded=0;" edge="1" parent="WIyWlLk6GJQsqaUBKTNV-1">
          <mxGeometry width="50" height="50" relative="1" as="geometry">
            <mxPoint x="1730" y="560" as="sourcePoint" />
            <mxPoint x="1040" y="560" as="targetPoint" />
          </mxGeometry>
        </mxCell>
        <mxCell id="TQMWpj2GuU2XblvTJpzS-111" value="loop" style="edgeLabel;html=1;align=center;verticalAlign=middle;resizable=0;points=[];" vertex="1" connectable="0" parent="TQMWpj2GuU2XblvTJpzS-110">
          <mxGeometry x="0.8186" y="2" relative="1" as="geometry">
            <mxPoint as="offset" />
          </mxGeometry>
        </mxCell>
        <mxCell id="TQMWpj2GuU2XblvTJpzS-163" value="" style="edgeStyle=orthogonalEdgeStyle;rounded=0;orthogonalLoop=1;jettySize=auto;html=1;" edge="1" parent="WIyWlLk6GJQsqaUBKTNV-1" source="TQMWpj2GuU2XblvTJpzS-0" target="TQMWpj2GuU2XblvTJpzS-160">
          <mxGeometry relative="1" as="geometry" />
        </mxCell>
        <mxCell id="TQMWpj2GuU2XblvTJpzS-0" value="START" style="ellipse;whiteSpace=wrap;html=1;" vertex="1" parent="WIyWlLk6GJQsqaUBKTNV-1">
          <mxGeometry x="901" y="-150" width="120" height="80" as="geometry" />
        </mxCell>
        <mxCell id="TQMWpj2GuU2XblvTJpzS-11" value="" style="edgeStyle=orthogonalEdgeStyle;rounded=0;orthogonalLoop=1;jettySize=auto;html=1;" edge="1" parent="WIyWlLk6GJQsqaUBKTNV-1" source="TQMWpj2GuU2XblvTJpzS-1" target="TQMWpj2GuU2XblvTJpzS-10">
          <mxGeometry relative="1" as="geometry" />
        </mxCell>
        <mxCell id="TQMWpj2GuU2XblvTJpzS-13" value="" style="group" vertex="1" connectable="0" parent="WIyWlLk6GJQsqaUBKTNV-1">
          <mxGeometry x="827" y="200" width="224" height="80" as="geometry" />
        </mxCell>
        <mxCell id="TQMWpj2GuU2XblvTJpzS-10" value="Pengguna menginput&amp;nbsp;&lt;div&gt;nama dan password&lt;/div&gt;" style="shape=parallelogram;perimeter=parallelogramPerimeter;whiteSpace=wrap;html=1;fixedSize=1;" vertex="1" parent="TQMWpj2GuU2XblvTJpzS-13">
          <mxGeometry x="44" width="180" height="80" as="geometry" />
        </mxCell>
        <mxCell id="TQMWpj2GuU2XblvTJpzS-12" value="" style="endArrow=classic;html=1;rounded=0;entryX=0.113;entryY=0.002;entryDx=0;entryDy=0;entryPerimeter=0;" edge="1" parent="TQMWpj2GuU2XblvTJpzS-13" target="TQMWpj2GuU2XblvTJpzS-10">
          <mxGeometry width="50" height="50" relative="1" as="geometry">
            <mxPoint as="sourcePoint" />
            <mxPoint x="160" y="-10" as="targetPoint" />
          </mxGeometry>
        </mxCell>
        <mxCell id="TQMWpj2GuU2XblvTJpzS-14" value="" style="group" vertex="1" connectable="0" parent="WIyWlLk6GJQsqaUBKTNV-1">
          <mxGeometry x="871" y="80" width="206" height="80" as="geometry" />
        </mxCell>
        <mxCell id="TQMWpj2GuU2XblvTJpzS-1" value="Print &quot;Masukkan Nama&quot;&amp;nbsp;&lt;div&gt;dan &quot;Masukkan&amp;nbsp;&lt;/div&gt;&lt;div&gt;Password&quot;&lt;/div&gt;" style="shape=parallelogram;perimeter=parallelogramPerimeter;whiteSpace=wrap;html=1;fixedSize=1;" vertex="1" parent="TQMWpj2GuU2XblvTJpzS-14">
          <mxGeometry width="180" height="80" as="geometry" />
        </mxCell>
        <mxCell id="TQMWpj2GuU2XblvTJpzS-7" value="" style="endArrow=classic;html=1;rounded=0;exitX=0.9;exitY=1;exitDx=0;exitDy=0;exitPerimeter=0;" edge="1" parent="TQMWpj2GuU2XblvTJpzS-14" source="TQMWpj2GuU2XblvTJpzS-1">
          <mxGeometry width="50" height="50" relative="1" as="geometry">
            <mxPoint x="66" y="160" as="sourcePoint" />
            <mxPoint x="206" y="80" as="targetPoint" />
          </mxGeometry>
        </mxCell>
        <mxCell id="TQMWpj2GuU2XblvTJpzS-19" value="" style="edgeStyle=orthogonalEdgeStyle;rounded=0;orthogonalLoop=1;jettySize=auto;html=1;" edge="1" parent="WIyWlLk6GJQsqaUBKTNV-1" source="TQMWpj2GuU2XblvTJpzS-15" target="TQMWpj2GuU2XblvTJpzS-18">
          <mxGeometry relative="1" as="geometry">
            <Array as="points">
              <mxPoint x="1087" y="390" />
              <mxPoint x="1087" y="390" />
            </Array>
          </mxGeometry>
        </mxCell>
        <mxCell id="TQMWpj2GuU2XblvTJpzS-23" value="false" style="edgeLabel;html=1;align=center;verticalAlign=middle;resizable=0;points=[];" vertex="1" connectable="0" parent="TQMWpj2GuU2XblvTJpzS-19">
          <mxGeometry x="-0.0897" y="-1" relative="1" as="geometry">
            <mxPoint as="offset" />
          </mxGeometry>
        </mxCell>
        <mxCell id="TQMWpj2GuU2XblvTJpzS-32" value="" style="edgeStyle=orthogonalEdgeStyle;rounded=0;orthogonalLoop=1;jettySize=auto;html=1;" edge="1" parent="WIyWlLk6GJQsqaUBKTNV-1" source="TQMWpj2GuU2XblvTJpzS-15" target="TQMWpj2GuU2XblvTJpzS-29">
          <mxGeometry relative="1" as="geometry" />
        </mxCell>
        <mxCell id="TQMWpj2GuU2XblvTJpzS-149" value="true" style="edgeLabel;html=1;align=center;verticalAlign=middle;resizable=0;points=[];" vertex="1" connectable="0" parent="TQMWpj2GuU2XblvTJpzS-32">
          <mxGeometry x="-0.3095" relative="1" as="geometry">
            <mxPoint y="-1" as="offset" />
          </mxGeometry>
        </mxCell>
        <mxCell id="TQMWpj2GuU2XblvTJpzS-15" value="Apakah input&amp;nbsp;&lt;div&gt;nama dan password sesuai?&lt;/div&gt;" style="rhombus;whiteSpace=wrap;html=1;" vertex="1" parent="WIyWlLk6GJQsqaUBKTNV-1">
          <mxGeometry x="891" y="320" width="140" height="140" as="geometry" />
        </mxCell>
        <mxCell id="TQMWpj2GuU2XblvTJpzS-16" value="" style="edgeStyle=orthogonalEdgeStyle;rounded=0;orthogonalLoop=1;jettySize=auto;html=1;" edge="1" parent="WIyWlLk6GJQsqaUBKTNV-1" source="TQMWpj2GuU2XblvTJpzS-10" target="TQMWpj2GuU2XblvTJpzS-15">
          <mxGeometry relative="1" as="geometry" />
        </mxCell>
        <mxCell id="TQMWpj2GuU2XblvTJpzS-18" value="Apakah salah&amp;nbsp;&lt;div&gt;input &amp;lt; 3&lt;/div&gt;" style="rhombus;whiteSpace=wrap;html=1;" vertex="1" parent="WIyWlLk6GJQsqaUBKTNV-1">
          <mxGeometry x="1147" y="320" width="140" height="140" as="geometry" />
        </mxCell>
        <mxCell id="TQMWpj2GuU2XblvTJpzS-21" value="" style="endArrow=none;html=1;rounded=0;exitX=0.5;exitY=0;exitDx=0;exitDy=0;" edge="1" parent="WIyWlLk6GJQsqaUBKTNV-1" source="TQMWpj2GuU2XblvTJpzS-18">
          <mxGeometry width="50" height="50" relative="1" as="geometry">
            <mxPoint x="1157" y="260" as="sourcePoint" />
            <mxPoint x="1217" y="120" as="targetPoint" />
          </mxGeometry>
        </mxCell>
        <mxCell id="TQMWpj2GuU2XblvTJpzS-24" value="true" style="edgeLabel;html=1;align=center;verticalAlign=middle;resizable=0;points=[];" vertex="1" connectable="0" parent="TQMWpj2GuU2XblvTJpzS-21">
          <mxGeometry x="-0.726" y="-1" relative="1" as="geometry">
            <mxPoint as="offset" />
          </mxGeometry>
        </mxCell>
        <mxCell id="TQMWpj2GuU2XblvTJpzS-22" value="" style="endArrow=classic;html=1;rounded=0;entryX=1;entryY=0.5;entryDx=0;entryDy=0;" edge="1" parent="WIyWlLk6GJQsqaUBKTNV-1" target="TQMWpj2GuU2XblvTJpzS-1">
          <mxGeometry width="50" height="50" relative="1" as="geometry">
            <mxPoint x="1217" y="120" as="sourcePoint" />
            <mxPoint x="1207" y="210" as="targetPoint" />
          </mxGeometry>
        </mxCell>
        <mxCell id="TQMWpj2GuU2XblvTJpzS-143" value="loop" style="edgeLabel;html=1;align=center;verticalAlign=middle;resizable=0;points=[];" vertex="1" connectable="0" parent="TQMWpj2GuU2XblvTJpzS-22">
          <mxGeometry x="0.2987" relative="1" as="geometry">
            <mxPoint as="offset" />
          </mxGeometry>
        </mxCell>
        <mxCell id="TQMWpj2GuU2XblvTJpzS-28" value="" style="group" vertex="1" connectable="0" parent="WIyWlLk6GJQsqaUBKTNV-1">
          <mxGeometry x="871" y="520" width="224" height="80" as="geometry" />
        </mxCell>
        <mxCell id="TQMWpj2GuU2XblvTJpzS-29" value="Print Tampilan Menu" style="shape=parallelogram;perimeter=parallelogramPerimeter;whiteSpace=wrap;html=1;fixedSize=1;" vertex="1" parent="TQMWpj2GuU2XblvTJpzS-28">
          <mxGeometry width="180" height="80" as="geometry" />
        </mxCell>
        <mxCell id="TQMWpj2GuU2XblvTJpzS-30" value="" style="endArrow=classic;html=1;rounded=0;exitX=0.9;exitY=1;exitDx=0;exitDy=0;exitPerimeter=0;" edge="1" parent="TQMWpj2GuU2XblvTJpzS-28" source="TQMWpj2GuU2XblvTJpzS-29">
          <mxGeometry width="50" height="50" relative="1" as="geometry">
            <mxPoint x="66" y="160" as="sourcePoint" />
            <mxPoint x="206" y="80" as="targetPoint" />
          </mxGeometry>
        </mxCell>
        <mxCell id="TQMWpj2GuU2XblvTJpzS-33" value="" style="group" vertex="1" connectable="0" parent="WIyWlLk6GJQsqaUBKTNV-1">
          <mxGeometry x="827" y="640" width="224" height="80" as="geometry" />
        </mxCell>
        <mxCell id="TQMWpj2GuU2XblvTJpzS-34" value="Pengguna menginput&amp;nbsp;&lt;div&gt;pilihan berdasarkan angka&lt;/div&gt;" style="shape=parallelogram;perimeter=parallelogramPerimeter;whiteSpace=wrap;html=1;fixedSize=1;" vertex="1" parent="TQMWpj2GuU2XblvTJpzS-33">
          <mxGeometry x="44" width="180" height="80" as="geometry" />
        </mxCell>
        <mxCell id="TQMWpj2GuU2XblvTJpzS-35" value="" style="endArrow=classic;html=1;rounded=0;entryX=0.113;entryY=0.002;entryDx=0;entryDy=0;entryPerimeter=0;" edge="1" parent="TQMWpj2GuU2XblvTJpzS-33" target="TQMWpj2GuU2XblvTJpzS-34">
          <mxGeometry width="50" height="50" relative="1" as="geometry">
            <mxPoint as="sourcePoint" />
            <mxPoint x="160" y="-10" as="targetPoint" />
          </mxGeometry>
        </mxCell>
        <mxCell id="TQMWpj2GuU2XblvTJpzS-36" value="" style="edgeStyle=orthogonalEdgeStyle;rounded=0;orthogonalLoop=1;jettySize=auto;html=1;" edge="1" parent="WIyWlLk6GJQsqaUBKTNV-1" source="TQMWpj2GuU2XblvTJpzS-29" target="TQMWpj2GuU2XblvTJpzS-34">
          <mxGeometry relative="1" as="geometry" />
        </mxCell>
        <mxCell id="TQMWpj2GuU2XblvTJpzS-139" value="" style="endArrow=none;html=1;rounded=0;exitX=0.5;exitY=1;exitDx=0;exitDy=0;" edge="1" parent="WIyWlLk6GJQsqaUBKTNV-1" source="TQMWpj2GuU2XblvTJpzS-92">
          <mxGeometry width="50" height="50" relative="1" as="geometry">
            <mxPoint x="1310" y="1320" as="sourcePoint" />
            <mxPoint x="1480" y="1520" as="targetPoint" />
          </mxGeometry>
        </mxCell>
        <mxCell id="TQMWpj2GuU2XblvTJpzS-140" value="" style="endArrow=none;html=1;rounded=0;" edge="1" parent="WIyWlLk6GJQsqaUBKTNV-1">
          <mxGeometry width="50" height="50" relative="1" as="geometry">
            <mxPoint x="1480" y="1520" as="sourcePoint" />
            <mxPoint x="970" y="1520" as="targetPoint" />
          </mxGeometry>
        </mxCell>
        <mxCell id="TQMWpj2GuU2XblvTJpzS-142" value="" style="group" vertex="1" connectable="0" parent="WIyWlLk6GJQsqaUBKTNV-1">
          <mxGeometry x="910" y="1520" width="120" height="120" as="geometry" />
        </mxCell>
        <mxCell id="TQMWpj2GuU2XblvTJpzS-138" value="END" style="ellipse;whiteSpace=wrap;html=1;" vertex="1" parent="TQMWpj2GuU2XblvTJpzS-142">
          <mxGeometry y="40" width="120" height="80" as="geometry" />
        </mxCell>
        <mxCell id="TQMWpj2GuU2XblvTJpzS-141" value="" style="endArrow=classic;html=1;rounded=0;entryX=0.5;entryY=0;entryDx=0;entryDy=0;" edge="1" parent="TQMWpj2GuU2XblvTJpzS-142" target="TQMWpj2GuU2XblvTJpzS-138">
          <mxGeometry width="50" height="50" relative="1" as="geometry">
            <mxPoint x="60" as="sourcePoint" />
            <mxPoint x="446" y="-50" as="targetPoint" />
          </mxGeometry>
        </mxCell>
        <mxCell id="TQMWpj2GuU2XblvTJpzS-144" value="" style="endArrow=none;html=1;rounded=0;exitX=1;exitY=0.5;exitDx=0;exitDy=0;" edge="1" parent="WIyWlLk6GJQsqaUBKTNV-1" source="TQMWpj2GuU2XblvTJpzS-18">
          <mxGeometry width="50" height="50" relative="1" as="geometry">
            <mxPoint x="1080" y="620" as="sourcePoint" />
            <mxPoint x="1910" y="390" as="targetPoint" />
          </mxGeometry>
        </mxCell>
        <mxCell id="TQMWpj2GuU2XblvTJpzS-148" value="false" style="edgeLabel;html=1;align=center;verticalAlign=middle;resizable=0;points=[];" vertex="1" connectable="0" parent="TQMWpj2GuU2XblvTJpzS-144">
          <mxGeometry x="-0.8899" y="-2" relative="1" as="geometry">
            <mxPoint as="offset" />
          </mxGeometry>
        </mxCell>
        <mxCell id="TQMWpj2GuU2XblvTJpzS-146" value="" style="endArrow=none;html=1;rounded=0;" edge="1" parent="WIyWlLk6GJQsqaUBKTNV-1">
          <mxGeometry width="50" height="50" relative="1" as="geometry">
            <mxPoint x="1910" y="390" as="sourcePoint" />
            <mxPoint x="1910" y="1520" as="targetPoint" />
          </mxGeometry>
        </mxCell>
        <mxCell id="TQMWpj2GuU2XblvTJpzS-147" value="" style="endArrow=classic;html=1;rounded=0;" edge="1" parent="WIyWlLk6GJQsqaUBKTNV-1">
          <mxGeometry width="50" height="50" relative="1" as="geometry">
            <mxPoint x="1910" y="1520" as="sourcePoint" />
            <mxPoint x="1480" y="1520" as="targetPoint" />
          </mxGeometry>
        </mxCell>
        <mxCell id="TQMWpj2GuU2XblvTJpzS-80" value="" style="edgeStyle=orthogonalEdgeStyle;rounded=0;orthogonalLoop=1;jettySize=auto;html=1;" edge="1" parent="WIyWlLk6GJQsqaUBKTNV-1" source="TQMWpj2GuU2XblvTJpzS-81" target="TQMWpj2GuU2XblvTJpzS-87">
          <mxGeometry relative="1" as="geometry" />
        </mxCell>
        <mxCell id="TQMWpj2GuU2XblvTJpzS-81" value="Mengkonversi Nilai Kelvin ke Celcius, Fahrenheit, dan Reamur" style="rounded=0;whiteSpace=wrap;html=1;" vertex="1" parent="WIyWlLk6GJQsqaUBKTNV-1">
          <mxGeometry x="1187.5" y="1160" width="133" height="80" as="geometry" />
        </mxCell>
        <mxCell id="TQMWpj2GuU2XblvTJpzS-82" value="" style="group" vertex="1" connectable="0" parent="WIyWlLk6GJQsqaUBKTNV-1">
          <mxGeometry x="1120" y="1040" width="224" height="80" as="geometry" />
        </mxCell>
        <mxCell id="TQMWpj2GuU2XblvTJpzS-83" value="Pengguna menginput&amp;nbsp;&lt;div&gt;berapa nilai Kelvin&lt;/div&gt;" style="shape=parallelogram;perimeter=parallelogramPerimeter;whiteSpace=wrap;html=1;fixedSize=1;" vertex="1" parent="TQMWpj2GuU2XblvTJpzS-82">
          <mxGeometry x="44" width="180" height="80" as="geometry" />
        </mxCell>
        <mxCell id="TQMWpj2GuU2XblvTJpzS-84" value="" style="endArrow=classic;html=1;rounded=0;entryX=0.113;entryY=0.002;entryDx=0;entryDy=0;entryPerimeter=0;" edge="1" parent="TQMWpj2GuU2XblvTJpzS-82" target="TQMWpj2GuU2XblvTJpzS-83">
          <mxGeometry width="50" height="50" relative="1" as="geometry">
            <mxPoint as="sourcePoint" />
            <mxPoint x="160" y="-10" as="targetPoint" />
          </mxGeometry>
        </mxCell>
        <mxCell id="TQMWpj2GuU2XblvTJpzS-85" value="" style="edgeStyle=orthogonalEdgeStyle;rounded=0;orthogonalLoop=1;jettySize=auto;html=1;" edge="1" parent="WIyWlLk6GJQsqaUBKTNV-1" source="TQMWpj2GuU2XblvTJpzS-83" target="TQMWpj2GuU2XblvTJpzS-81">
          <mxGeometry relative="1" as="geometry" />
        </mxCell>
        <mxCell id="TQMWpj2GuU2XblvTJpzS-86" value="" style="group" vertex="1" connectable="0" parent="WIyWlLk6GJQsqaUBKTNV-1">
          <mxGeometry x="1164" y="1280" width="224" height="80" as="geometry" />
        </mxCell>
        <mxCell id="TQMWpj2GuU2XblvTJpzS-87" value="Print Hasil Konversi" style="shape=parallelogram;perimeter=parallelogramPerimeter;whiteSpace=wrap;html=1;fixedSize=1;" vertex="1" parent="TQMWpj2GuU2XblvTJpzS-86">
          <mxGeometry width="180" height="80" as="geometry" />
        </mxCell>
        <mxCell id="TQMWpj2GuU2XblvTJpzS-88" value="" style="endArrow=classic;html=1;rounded=0;exitX=0.9;exitY=1;exitDx=0;exitDy=0;exitPerimeter=0;" edge="1" parent="TQMWpj2GuU2XblvTJpzS-86" source="TQMWpj2GuU2XblvTJpzS-87">
          <mxGeometry width="50" height="50" relative="1" as="geometry">
            <mxPoint x="66" y="160" as="sourcePoint" />
            <mxPoint x="206" y="80" as="targetPoint" />
          </mxGeometry>
        </mxCell>
        <mxCell id="TQMWpj2GuU2XblvTJpzS-161" value="" style="edgeStyle=orthogonalEdgeStyle;rounded=0;orthogonalLoop=1;jettySize=auto;html=1;" edge="1" parent="WIyWlLk6GJQsqaUBKTNV-1" source="TQMWpj2GuU2XblvTJpzS-160" target="TQMWpj2GuU2XblvTJpzS-1">
          <mxGeometry relative="1" as="geometry" />
        </mxCell>
        <mxCell id="TQMWpj2GuU2XblvTJpzS-160" value="Variabel Nama = &quot;Naufal&quot;, Password = &quot;034&quot;&amp;nbsp;" style="rounded=0;whiteSpace=wrap;html=1;" vertex="1" parent="WIyWlLk6GJQsqaUBKTNV-1">
          <mxGeometry x="894.5" y="-40" width="133" height="80" as="geometry" />
        </mxCell>
      </root>
    </mxGraphModel>
  </diagram>
</mxfile>
